<?xml version="1.0" encoding="utf-8"?>
<!-- Generator: Adobe Illustrator 16.0.3, SVG Export Plug-In . SVG Version: 6.00 Build 0)  -->
<!DOCTYPE svg PUBLIC "-//W3C//DTD SVG 1.1//EN" "http://www.w3.org/Graphics/SVG/1.1/DTD/svg11.dtd">
<svg version="1.1" id="svg2211" xmlns:svg="http://www.w3.org/2000/svg"
	 xmlns="http://www.w3.org/2000/svg" xmlns:xlink="http://www.w3.org/1999/xlink" x="0px" y="0px" width="500px" height="441.305px"
	 viewBox="0 0 500 441.305" enable-background="new 0 0 500 441.305" xml:space="preserve">
<g id="layer3">
</g>
<path id="path2548" fill="none" stroke="#B3B3B3" d="M222.391,251.623h173.854"/>
<path id="path2546" fill="none" stroke="#999999" d="M222.391,84.455v167.168l-63.327,74.732"/>
<path id="path2538" fill="none" stroke="#000000" stroke-width="2" d="M341.57,326.355H159.063l0.786-0.785l-0.786-174.642
	l63.327-66.474h173.854v167.168L341.57,326.355z"/>
<path id="path2540" fill="none" stroke="#000000" stroke-width="2" d="M159.063,150.929H341.57l54.674-66.474"/>
<path id="path2544" fill="none" stroke="#000000" stroke-width="2" d="M341.57,150.929v175.427"/>
<path id="path2512" fill="#0000FF" stroke="#0000FF" stroke-width="1.2" stroke-linecap="round" stroke-linejoin="round" d="
	M401.451,251.623c0.002,2.875-2.331,5.209-5.207,5.209s-5.207-2.334-5.207-5.209c-0.002-2.877,2.331-5.207,5.207-5.207
	c2.857,0,5.183,2.303,5.207,5.16"/>
<path id="path2502" fill="#0000FF" stroke="#0000FF" stroke-width="1.2" stroke-linecap="round" stroke-linejoin="round" d="
	M346.777,326.355c0.002,2.877-2.33,5.209-5.207,5.209c-2.876,0-5.207-2.332-5.207-5.209c-0.001-2.875,2.331-5.207,5.207-5.207
	c2.858,0,5.183,2.305,5.207,5.162"/>
<path id="path2498" fill="#0000FF" stroke="#0000FF" stroke-width="1.2" stroke-linecap="round" stroke-linejoin="round" d="
	M164.271,326.402c0.001,2.875-2.331,5.205-5.207,5.207c-2.876,0-5.207-2.33-5.207-5.207c-0.001-2.877,2.331-5.209,5.207-5.209
	c2.857,0,5.183,2.305,5.207,5.162"/>
<path id="path2496" fill="#0000FF" stroke="#0000FF" stroke-width="1.2" stroke-linecap="round" stroke-linejoin="round" d="
	M164.271,150.929c0.001,2.876-2.331,5.208-5.207,5.208s-5.207-2.331-5.207-5.207c-0.001-2.877,2.331-5.208,5.207-5.208
	c2.857,0,5.183,2.304,5.207,5.161"/>
<path id="path2510" fill="#0000FF" stroke="#0000FF" stroke-width="1.2" stroke-linecap="round" stroke-linejoin="round" d="
	M401.451,84.5c0.002,2.875-2.331,5.207-5.207,5.208c-2.876,0-5.207-2.332-5.207-5.207c-0.002-2.876,2.331-5.208,5.207-5.208
	c2.857,0,5.183,2.303,5.207,5.162"/>
<path id="path2500" fill="#0000FF" stroke="#0000FF" stroke-width="1.2" stroke-linecap="round" stroke-linejoin="round" d="
	M346.777,150.883c0.002,2.877-2.33,5.209-5.207,5.209c-2.876,0-5.207-2.331-5.207-5.207c-0.001-2.876,2.331-5.207,5.207-5.209
	c2.858,0,5.183,2.305,5.207,5.163"/>
<path id="path3691" fill="#0000FF" stroke="#0000FF" stroke-width="1.2" stroke-linecap="round" stroke-linejoin="round" d="
	M227.652,84.944c0,2.875-2.332,5.207-5.207,5.207c-2.877,0.001-5.209-2.331-5.209-5.207c0-2.875,2.332-5.207,5.207-5.207
	c2.859-0.001,5.184,2.303,5.209,5.162"/>
<path id="path2540_1_" fill="none" stroke="#000000" stroke-width="2" d="M236.907,262.373l54.674-66.474"/>
<path id="path2538_1_" fill="none" stroke="#000000" stroke-width="2" d="M386.711,211.971H204.204"/>
<path id="path2538_2_" fill="none" stroke="#000000" stroke-width="2" d="M278.244,278.57l-0.786-174.642"/>
<path id="path3409" fill="#FF0000" stroke="#FF0000" stroke-width="1.2" stroke-linecap="round" stroke-linejoin="round" d="
	M283.348,211.971c0,3.037-2.461,5.496-5.497,5.496s-5.497-2.459-5.497-5.496c0-3.035,2.461-5.496,5.497-5.496
	c3.018,0,5.47,2.432,5.497,5.449"/>
<path id="path3352" fill="#FF0000" d="M270.925,193.77v1.963c-0.627-0.584-1.296-1.02-2.006-1.309s-1.465-0.434-2.264-0.434
	c-1.572,0-2.777,0.48-3.613,1.443c-0.836,0.961-1.254,2.352-1.254,4.17c0,1.813,0.418,3.203,1.254,4.164s2.041,1.441,3.613,1.441
	c0.799,0,1.554-0.145,2.264-0.434s1.379-0.725,2.006-1.309v1.945c-0.652,0.441-1.342,0.773-2.07,0.996
	c-0.729,0.221-1.498,0.33-2.309,0.33c-2.084,0-3.725-0.635-4.924-1.91c-1.198-1.275-1.797-3.018-1.797-5.225
	c0-2.211,0.599-3.955,1.797-5.23c1.199-1.275,2.84-1.913,4.924-1.913c0.822,0,1.599,0.108,2.327,0.327
	C269.601,193.006,270.285,193.332,270.925,193.77L270.925,193.77z"/>
<rect x="104" y="336" fill="none" width="92.204" height="20"/>
<text transform="matrix(1 0 0 1 104 350.9102)" font-family="'MyriadPro-Regular'" font-size="21">(x0, y0, z0)</text>
<rect x="127.5" y="236.416" fill="none" width="92.204" height="20"/>
<text transform="matrix(1 0 0 1 127.5 251.3262)" font-family="'MyriadPro-Regular'" font-size="21">(x0, y0, z1)</text>
<rect x="252.573" y="125.722" fill="none" width="92.204" height="20"/>
<text transform="matrix(1 0 0 1 252.5732 140.6318)" font-family="'MyriadPro-Regular'" font-size="21">(x1, y1, z0)</text>
<rect x="88.5" y="111.5" fill="none" width="92.204" height="20"/>
<text transform="matrix(1 0 0 1 88.5 126.4102)" font-family="'MyriadPro-Regular'" font-size="21">(x0, y1, z0)</text>
<rect x="295.469" y="336" fill="none" width="92.204" height="20"/>
<text transform="matrix(1 0 0 1 295.4688 350.9102)" font-family="'MyriadPro-Regular'" font-size="21">(x1, y0, z0)</text>
<rect x="384.602" y="271.07" fill="none" width="92.204" height="20"/>
<text transform="matrix(1 0 0 1 384.6016 285.9805)" font-family="'MyriadPro-Regular'" font-size="21">(x1, y0, z1)</text>
<rect x="338.5" y="54.5" fill="none" width="92.204" height="20"/>
<text transform="matrix(1 0 0 1 338.5 69.4102)" font-family="'MyriadPro-Regular'" font-size="21">(x1, y1, z1)</text>
<rect x="176.342" y="54.5" fill="none" width="92.204" height="20"/>
<text transform="matrix(1 0 0 1 176.3418 69.4102)" font-family="'MyriadPro-Regular'" font-size="21">(x0, y1, z1)</text>
<path id="path3691_1_" opacity="0.5" fill="#0000FF" stroke="#0000FF" stroke-width="1.2" stroke-linecap="round" stroke-linejoin="round" d="
	M227.652,251.623c0,2.876-2.332,5.207-5.207,5.207c-2.877,0.002-5.209-2.33-5.209-5.207c0-2.875,2.332-5.207,5.207-5.207
	c2.859,0,5.184,2.304,5.209,5.162"/>
<rect x="227.652" y="192.46" fill="none" width="27.94" height="20"/>
<text transform="matrix(1 0 0 1 227.6523 207.3701)" opacity="0.5" font-family="'MyriadPro-Regular'" font-size="21">xd</text>
<rect x="281.498" y="241.623" fill="none" width="27.94" height="20"/>
<text transform="matrix(1 0 0 1 281.498 256.5332)" opacity="0.5" font-family="'MyriadPro-Regular'" font-size="21">xy</text>
<rect x="231.885" y="228.643" fill="none" width="27.94" height="20"/>
<text transform="matrix(1 0 0 1 231.8848 243.5527)" opacity="0.5" font-family="'MyriadPro-Regular'" font-size="21">xz</text>
<path id="path2496_1_" stroke="#000000" stroke-width="1.2" stroke-linecap="round" stroke-linejoin="round" d="M296.788,195.899
	c0.001,2.876-2.331,5.208-5.207,5.208s-5.207-2.331-5.207-5.207c-0.001-2.877,2.331-5.208,5.207-5.208
	c2.857,0,5.183,2.304,5.207,5.161"/>
<path id="path2496_2_" stroke="#000000" stroke-width="1.2" stroke-linecap="round" stroke-linejoin="round" d="M391.918,211.97
	c0.001,2.876-2.331,5.208-5.207,5.208s-5.207-2.331-5.207-5.207c-0.001-2.877,2.331-5.208,5.207-5.208
	c2.857,0,5.183,2.304,5.207,5.161"/>
<path id="path2496_3_" stroke="#000000" stroke-width="1.2" stroke-linecap="round" stroke-linejoin="round" d="M242.114,262.373
	c0.001,2.876-2.331,5.208-5.207,5.208s-5.207-2.331-5.207-5.207c-0.001-2.877,2.331-5.208,5.207-5.208
	c2.857,0,5.183,2.304,5.207,5.161"/>
<path id="path2496_4_" stroke="#000000" stroke-width="1.2" stroke-linecap="round" stroke-linejoin="round" d="M282.665,278.57
	c0.001,2.876-2.331,5.208-5.207,5.208s-5.207-2.331-5.207-5.207c-0.001-2.877,2.331-5.208,5.207-5.208
	c2.857,0,5.183,2.304,5.207,5.161"/>
<path id="path2496_5_" stroke="#000000" stroke-width="1.2" stroke-linecap="round" stroke-linejoin="round" d="M209.411,211.97
	c0.001,2.876-2.331,5.208-5.207,5.208s-5.207-2.331-5.207-5.207c-0.001-2.877,2.331-5.208,5.207-5.208
	c2.857,0,5.183,2.304,5.207,5.161"/>
<path id="path2496_6_" stroke="#000000" stroke-width="1.2" stroke-linecap="round" stroke-linejoin="round" d="M282.86,103.929
	c0.001,2.876-2.331,5.208-5.207,5.208s-5.207-2.331-5.207-5.207c-0.001-2.877,2.331-5.208,5.207-5.208
	c2.857,0,5.183,2.304,5.207,5.161"/>
<path id="path2540_2_" fill="none" stroke="#000000" stroke-width="2" d="M236.907,262.373l40.551-49.303"/>
<path id="path2538_3_" fill="none" stroke="#000000" stroke-width="2" d="M278.244,206.475l-0.786-102.546"/>
</svg>
